# This file uses centimeters as units for non-parametric coordinates.

mtllib wall.mtl
g default
v -3.752127 -2.797389 0.538462
v 3.752127 -2.797389 0.538462
v -3.752127 2.797389 0.538462
v 3.752127 2.797389 0.538462
v -3.752127 2.797389 -0.538462
v 3.752127 2.797389 -0.538462
v -3.752127 -2.797389 -0.538462
v 3.752127 -2.797389 -0.538462
v -3.752127 -2.797389 0.538462
v 3.752127 -2.797389 0.538462
v 3.752127 2.797389 0.538462
v -3.752127 2.797389 0.538462
v -2.875077 -1.244567 0.538462
v 2.875077 -1.244567 0.538462
v 2.875077 2.069390 0.538462
v -2.875077 2.069390 0.538462
v -2.875077 2.069390 -0.538462
v 2.875077 2.069390 -0.538462
v 2.875077 -1.244567 -0.538462
v -2.875077 -1.244567 -0.538462
v 3.256546 -1.919959 0.325137
v -3.256546 -1.919959 0.325137
v -3.256546 2.386030 0.325137
v 3.256546 2.386030 0.325137
v 3.476773 -2.309873 0.325137
v -3.476773 -2.309873 0.325137
v -3.476773 2.568830 0.325137
v 3.476773 2.568830 0.325137
v -3.250543 2.307927 0.538462
v 3.250543 2.307927 0.538462
v 3.250543 -1.546296 0.538462
v -3.250543 -1.546296 0.538462
vt 0.375000 0.000000
vt 0.625000 0.000000
vt 0.375000 0.250000
vt 0.625000 0.250000
vt 0.375000 0.500000
vt 0.625000 0.500000
vt 0.375000 0.750000
vt 0.625000 0.750000
vt 0.375000 1.000000
vt 0.625000 1.000000
vt 0.875000 0.000000
vt 0.875000 0.250000
vt 0.125000 0.000000
vt 0.125000 0.250000
vt 0.375000 0.000000
vt 0.625000 0.000000
vt 0.625000 0.250000
vt 0.375000 0.250000
vt 0.375000 0.000000
vt 0.625000 0.000000
vt 0.625000 0.250000
vt 0.375000 0.250000
vt 0.375000 0.500000
vt 0.625000 0.500000
vt 0.625000 0.750000
vt 0.375000 0.750000
vt 0.000000 0.000000
vt 0.592330 0.000000
vt 0.592330 1.000000
vt 0.000000 1.000000
vt 0.000000 0.000000
vt 0.766253 0.000000
vt 0.766253 1.000000
vt 0.000000 1.000000
vt 0.000000 0.000000
vt 0.592330 0.000000
vt 0.592330 1.000000
vt 0.000000 1.000000
vt 0.000000 1.000000
vt 0.766253 1.000000
vt 0.766253 0.000000
vt 0.000000 0.000000
vt 0.625000 0.000000
vt 0.375000 0.000000
vt 0.375000 0.250000
vt 0.625000 0.250000
vt 0.625000 0.000000
vt 0.375000 0.000000
vt 0.375000 0.250000
vt 0.625000 0.250000
vt 0.375000 0.250000
vt 0.625000 0.250000
vt 0.625000 0.000000
vt 0.375000 0.000000
vn 0.000000 1.000000 0.000000
vn 0.000000 1.000000 0.000000
vn 0.000000 1.000000 0.000000
vn 0.000000 1.000000 0.000000
vn 0.000000 -1.000000 0.000000
vn 0.000000 -1.000000 0.000000
vn 0.000000 -1.000000 0.000000
vn 0.000000 -1.000000 0.000000
vn 1.000000 0.000000 0.000000
vn 1.000000 0.000000 0.000000
vn 1.000000 0.000000 0.000000
vn 1.000000 0.000000 0.000000
vn -1.000000 0.000000 0.000000
vn -1.000000 0.000000 0.000000
vn -1.000000 0.000000 0.000000
vn -1.000000 0.000000 0.000000
vn 0.000000 0.000000 0.000000
vn 0.000000 0.000000 0.000000
vn 0.000000 0.000000 0.000000
vn 0.000000 0.000000 0.000000
vn 0.000000 0.000000 0.000000
vn 0.000000 0.000000 0.000000
vn 0.000000 0.000000 0.000000
vn 0.000000 0.000000 0.000000
vn 0.000000 0.000000 0.000000
vn 0.000000 0.000000 0.000000
vn 0.000000 0.000000 0.000000
vn 0.000000 0.000000 0.000000
vn 0.000000 0.000000 0.000000
vn 0.000000 0.000000 0.000000
vn 0.000000 0.000000 0.000000
vn 0.000000 0.000000 0.000000
vn 0.000000 0.400875 0.916133
vn 0.000000 0.400875 0.916133
vn 0.000000 0.400875 0.916133
vn 0.000000 0.400875 0.916133
vn -0.612437 0.000000 0.790520
vn -0.612437 0.000000 0.790520
vn -0.612437 0.000000 0.790520
vn -0.612437 0.000000 0.790520
vn 0.000000 -0.682323 0.731051
vn 0.000000 -0.682323 0.731051
vn 0.000000 -0.682323 0.731051
vn 0.000000 -0.682323 0.731051
vn 0.612437 0.000000 0.790520
vn 0.612437 0.000000 0.790520
vn 0.612437 0.000000 0.790520
vn 0.612437 0.000000 0.790520
vn 0.000000 0.000000 -1.000000
vn 0.000000 0.000000 -1.000000
vn 0.000000 0.000000 -1.000000
vn 0.000000 0.000000 -1.000000
vn -0.000000 0.000000 -1.000000
vn -0.000000 0.000000 -1.000000
vn -0.000000 0.000000 -1.000000
vn -0.000000 0.000000 -1.000000
vn 0.000000 0.000000 -1.000000
vn 0.000000 0.000000 -1.000000
vn 0.000000 0.000000 -1.000000
vn 0.000000 0.000000 -1.000000
vn 0.000000 0.000000 -1.000000
vn 0.000000 0.000000 -1.000000
vn 0.000000 0.000000 -1.000000
vn 0.000000 0.000000 -1.000000
vn -1.000000 0.000000 0.000000
vn -1.000000 0.000000 0.000000
vn -1.000000 0.000000 0.000000
vn -1.000000 0.000000 0.000000
vn 0.000000 1.000000 0.000000
vn 0.000000 1.000000 0.000000
vn 0.000000 1.000000 0.000000
vn 0.000000 1.000000 0.000000
vn 1.000000 0.000000 0.000000
vn 1.000000 0.000000 0.000000
vn 1.000000 0.000000 0.000000
vn 1.000000 0.000000 0.000000
vn 0.000000 -1.000000 0.000000
vn 0.000000 -1.000000 0.000000
vn 0.000000 -1.000000 0.000000
vn 0.000000 -1.000000 0.000000
vn 0.000000 -0.495792 0.868441
vn 0.000000 -0.495792 0.868441
vn 0.000000 -0.495792 0.868441
vn 0.000000 -0.495792 0.868441
vn -0.999604 0.000000 0.028125
vn -0.999604 0.000000 0.028125
vn -0.999604 0.000000 0.028125
vn -0.999604 0.000000 0.028125
vn 0.000000 0.939041 0.343806
vn 0.000000 0.939041 0.343806
vn 0.000000 0.939041 0.343806
vn 0.000000 0.939041 0.343806
vn 0.999604 0.000000 0.028125
vn 0.999604 0.000000 0.028125
vn 0.999604 0.000000 0.028125
vn 0.999604 0.000000 0.028125
vn 0.000000 0.000000 1.000000
vn 0.000000 0.000000 1.000000
vn 0.000000 0.000000 1.000000
vn 0.000000 0.000000 1.000000
vn -0.000000 0.000000 1.000000
vn -0.000000 0.000000 1.000000
vn -0.000000 0.000000 1.000000
vn -0.000000 0.000000 1.000000
vn 0.000000 0.000000 1.000000
vn 0.000000 0.000000 1.000000
vn 0.000000 0.000000 1.000000
vn 0.000000 0.000000 1.000000
vn 0.000000 0.000000 1.000000
vn 0.000000 0.000000 1.000000
vn 0.000000 0.000000 1.000000
vn 0.000000 0.000000 1.000000
vn 0.000000 0.000000 1.000000
vn 0.000000 0.000000 1.000000
vn 0.000000 0.000000 1.000000
vn 0.000000 0.000000 1.000000
vn 0.000000 0.000000 1.000000
vn 0.000000 0.000000 1.000000
vn 0.000000 0.000000 1.000000
vn 0.000000 0.000000 1.000000
vn 0.000000 0.000000 1.000000
vn 0.000000 0.000000 1.000000
vn 0.000000 0.000000 1.000000
vn 0.000000 0.000000 1.000000
vn 0.000000 0.000000 1.000000
vn 0.000000 0.000000 1.000000
vn 0.000000 0.000000 1.000000
vn 0.000000 0.000000 1.000000
s off
g pCube1
usemtl initialShadingGroup
f 3/3/1 4/4/2 6/6/3 5/5/4
f 7/7/5 8/8/6 2/10/7 1/9/8
f 2/2/9 8/11/10 6/12/11 4/4/12
f 7/13/13 1/1/14 3/3/15 5/14/16
f 1/1/17 2/2/18 10/16/19 9/15/20
f 2/2/21 4/4/22 11/17/23 10/16/24
f 4/4/25 3/3/26 12/18/27 11/17/28
f 3/3/29 1/1/30 9/15/31 12/18/32
f 9/15/33 10/16/34 25/47/35 26/48/36
f 10/16/37 11/17/38 28/50/39 25/47/40
f 11/17/41 12/18/42 27/49/43 28/50/44
f 12/18/45 9/15/46 26/48/47 27/49/48
f 5/5/49 6/6/50 18/24/51 17/23/52
f 6/6/53 8/8/54 19/25/55 18/24/56
f 8/8/57 7/7/58 20/26/59 19/25/60
f 7/7/61 5/5/62 17/23/63 20/26/64
f 18/27/65 19/28/66 14/29/67 15/30/68
f 13/31/69 14/32/70 19/33/71 20/34/72
f 20/35/73 17/36/74 16/37/75 13/38/76
f 15/39/77 16/40/78 17/41/79 18/42/80
f 22/44/81 21/43/82 31/53/83 32/54/84
f 23/45/85 22/44/86 32/54/87 29/51/88
f 24/46/89 23/45/90 29/51/91 30/52/92
f 21/43/93 24/46/94 30/52/95 31/53/96
f 26/48/97 25/47/98 21/43/99 22/44/100
f 27/49/101 26/48/102 22/44/103 23/45/104
f 28/50/105 27/49/106 23/45/107 24/46/108
f 25/47/109 28/50/110 24/46/111 21/43/112
f 30/52/113 29/51/114 16/22/115 15/21/116
f 31/53/117 30/52/118 15/21/119 14/20/120
f 32/54/121 31/53/122 14/20/123 13/19/124
f 29/51/125 32/54/126 13/19/127 16/22/128
